<?xml version="1.0" encoding="utf-8"?>
<!-- Generator: Adobe Illustrator 23.0.4, SVG Export Plug-In . SVG Version: 6.00 Build 0)  -->
<svg version="1.1" id="Ebene_1" xmlns="http://www.w3.org/2000/svg" xmlns:xlink="http://www.w3.org/1999/xlink" x="0px" y="0px"
	 viewBox="0 0 300 126" style="enable-background:new 0 0 300 126;" xml:space="preserve">
<style type="text/css">
	.st0{fill:#795548;}
</style>
<g>
	<path class="st0" d="M146.6,65.3h5.6v18.7c-0.5,0.2-1.1,0.3-2,0.5c-0.8,0.2-1.8,0.4-3,0.6c-1.2,0.2-2.3,0.3-3.7,0.5
		c-1.3,0.2-2.7,0.2-4.1,0.2c-2.9,0-5.4-0.5-7.7-1.4s-4.3-2.3-6-4c-1.7-1.8-2.9-3.9-3.9-6.5c-0.9-2.6-1.3-5.5-1.3-8.9
		c0-3.4,0.5-6.3,1.5-8.9c1-2.6,2.4-4.8,4.1-6.5c1.8-1.8,3.8-3.1,6.1-4s4.9-1.4,7.5-1.4c1.8,0,3.4,0.1,4.9,0.3s2.6,0.5,3.6,0.8
		c1,0.3,1.8,0.6,2.4,0.9c0.7,0.3,1.1,0.5,1.3,0.7l-1.8,4.7c-1.1-0.8-2.6-1.3-4.4-1.8s-3.8-0.8-5.7-0.8c-2,0-3.9,0.3-5.5,1.1
		c-1.7,0.8-3.1,1.8-4.3,3.2s-2.1,3.1-2.8,5c-0.7,2-1,4.2-1,6.7c0,2.3,0.3,4.5,0.8,6.5c0.6,1.9,1.4,3.7,2.5,5
		c1.2,1.4,2.5,2.5,4.2,3.3c1.7,0.8,3.7,1.2,6,1.2c1.6,0,3-0.1,4.1-0.3c1.2-0.2,1.9-0.3,2.4-0.5L146.6,65.3L146.6,65.3z"/>
	<path class="st0" d="M170.4,54.2c2.2,0,3.9,0.3,5.5,0.8s2.7,1.3,3.6,2.3c0.9,1,1.5,2.3,1.9,3.6c0.4,1.4,0.6,2.9,0.6,4.6v18.8
		c-0.5,0.1-1.1,0.2-1.9,0.3c-0.8,0.2-1.8,0.3-2.8,0.3s-2.2,0.3-3.4,0.3c-1.2,0.1-2.4,0.2-3.6,0.2c-1.7,0-3.3-0.2-4.7-0.5
		s-2.7-0.9-3.7-1.7s-1.8-1.8-2.4-2.9c-0.6-1.3-0.8-2.7-0.8-4.4c0-1.7,0.3-3.1,1-4.3c0.7-1.2,1.6-2.2,2.8-2.9c1.2-0.8,2.5-1.3,4-1.6
		c1.5-0.3,3.2-0.5,4.9-0.5c0.5,0,1.1,0,1.7,0.1c0.6,0.1,1.1,0.2,1.7,0.3c0.5,0.1,1,0.2,1.3,0.3c0.4,0.1,0.7,0.2,0.8,0.2V66
		c0-0.9-0.1-1.8-0.3-2.6c-0.2-0.8-0.5-1.7-1-2.3c-0.5-0.7-1.2-1.2-2-1.6c-0.8-0.4-2-0.6-3.4-0.6c-1.8,0-3.4,0.1-4.6,0.3
		c-1.3,0.3-2.3,0.5-2.9,0.8l-0.7-4.4c0.7-0.3,1.8-0.6,3.4-0.9C166.8,54.4,168.4,54.2,170.4,54.2z M170.8,81.1c1.3,0,2.4,0,3.4-0.1
		c1-0.1,1.8-0.2,2.4-0.3v-8.9c-0.4-0.2-1-0.3-1.8-0.5c-0.8-0.2-1.9-0.2-3.2-0.2c-0.8,0-1.7,0.1-2.6,0.2c-0.9,0.1-1.8,0.3-2.5,0.8
		c-0.8,0.3-1.3,0.8-1.8,1.5c-0.5,0.7-0.8,1.5-0.8,2.5c0,1.9,0.6,3.3,1.8,4C167,80.8,168.7,81.1,170.8,81.1z"/>
	<path class="st0" d="M199.8,85.6c-3.4-0.1-5.7-0.8-7-2.2c-1.4-1.3-2.1-3.4-2.1-6.3V41l5.4-0.9v36.1c0,0.9,0.1,1.6,0.3,2.2
		c0.2,0.6,0.4,1,0.8,1.4c0.3,0.3,0.8,0.6,1.4,0.8c0.6,0.2,1.3,0.3,2.1,0.4L199.8,85.6z"/>
	<path class="st0" d="M209.3,49.5c-0.9,0-1.8-0.3-2.4-0.9c-0.7-0.7-1-1.5-1-2.6c0-1.1,0.3-1.9,1-2.6c0.7-0.7,1.5-0.9,2.4-0.9
		c0.9,0,1.8,0.3,2.4,0.9c0.7,0.7,1,1.5,1,2.6c0,1.1-0.3,1.9-1,2.6C211.1,49.2,210.2,49.5,209.3,49.5z M212,85.1h-5.4V54.9h5.4V85.1z
		"/>
	<path class="st0" d="M230.3,85.6c-3.4-0.1-5.7-0.8-7-2.2c-1.4-1.3-2.1-3.4-2.1-6.3V41l5.4-0.9v36.1c0,0.9,0.1,1.6,0.3,2.2
		c0.2,0.6,0.4,1,0.8,1.4c0.3,0.3,0.8,0.6,1.4,0.8c0.6,0.2,1.3,0.3,2.1,0.4L230.3,85.6z"/>
	<path class="st0" d="M235.3,70c0-2.7,0.4-4.9,1.2-7c0.8-2,1.8-3.6,3.1-4.9c1.3-1.3,2.8-2.3,4.4-2.9c1.7-0.7,3.4-1,5.1-1
		c4,0,7.1,1.3,9.3,3.8c2.2,2.5,3.3,6.4,3.3,11.5c0,0.3,0,0.5,0,0.9c0,0.3,0,0.7-0.1,1H241c0.3,3.1,1.2,5.5,2.7,7.1
		c1.6,1.6,4,2.4,7.4,2.4c1.8,0,3.4-0.2,4.8-0.5c1.3-0.3,2.3-0.7,2.9-0.9l0.8,4.5c-0.7,0.3-1.8,0.8-3.4,1.1c-1.7,0.4-3.5,0.6-5.5,0.6
		c-2.6,0-4.9-0.4-6.8-1.2c-1.9-0.8-3.4-1.8-4.7-3.3c-1.3-1.4-2.2-3-2.8-4.9C235.6,74.4,235.3,72.3,235.3,70z M255.9,67.1
		c0-2.4-0.6-4.4-1.8-6c-1.3-1.6-2.9-2.3-5.2-2.3c-1.3,0-2.3,0.3-3.3,0.8c-0.9,0.5-1.8,1.1-2.4,1.8c-0.7,0.8-1.2,1.7-1.5,2.7
		c-0.3,1-0.6,2-0.8,3.1L255.9,67.1L255.9,67.1z"/>
	<path class="st0" d="M278.3,85.6c-3.4-0.1-5.7-0.8-7-2.2c-1.4-1.3-2.1-3.4-2.1-6.3V41l5.4-0.9v36.1c0,0.9,0.1,1.6,0.3,2.2
		c0.2,0.6,0.4,1,0.8,1.4c0.3,0.3,0.8,0.6,1.4,0.8c0.6,0.2,1.3,0.3,2.1,0.4L278.3,85.6z"/>
</g>
<g>
	
		<rect x="35.2" y="74.8" transform="matrix(0.7071 -0.7071 0.7071 0.7071 -43.2794 51.1528)" class="st0" width="9.8" height="6.1"/>
	<path class="st0" d="M55.3,39.9l3.9-3.9c1.4-1.4,3.8-1.4,5.2,0l3.9,3.9l7-7L64.4,22.1c-1.4-1.4-3.8-1.4-5.2,0L48.3,33L55.3,39.9z"
		/>
	
		<rect x="80.5" y="72.9" transform="matrix(0.7071 -0.7071 0.7071 0.7071 -30.5618 81.8817)" class="st0" width="6.1" height="9.8"/>
	
		<rect x="73.5" y="79.8" transform="matrix(0.7071 -0.7071 0.7071 0.7071 -37.4394 78.9693)" class="st0" width="6.1" height="9.8"/>
	<rect x="71.7" y="38.2" transform="matrix(0.7071 -0.7071 0.7071 0.7071 -6.7107 66.2518)" class="st0" width="9.8" height="6.1"/>
	<rect x="78.6" y="45.2" transform="matrix(0.7071 -0.7071 0.7071 0.7071 -9.6476 73.1887)" class="st0" width="9.8" height="6.1"/>
	<rect x="37" y="43.3" transform="matrix(0.7071 -0.7071 0.7071 0.7071 -22.3652 42.4598)" class="st0" width="6.1" height="9.8"/>
	<path class="st0" d="M38.8,69.5l-3.9-3.9c-1.4-1.4-1.4-3.8,0-5.2l3.9-3.9l-7-7L20.9,60.4c-1.4,1.4-1.4,3.8,0,5.2l10.9,10.9
		L38.8,69.5z"/>
	<path class="st0" d="M102.7,60.4L91.8,49.5l-7,7l3.9,3.9c1.4,1.4,1.4,3.8,0,5.2l-3.9,3.9l7,7l10.9-10.9
		C104.1,64.2,104.1,61.8,102.7,60.4z"/>
	<path class="st0" d="M68.4,86.1L64.4,90c-1.4,1.4-3.8,1.4-5.2,0l-3.9-3.9l-7,7l10.9,10.9c1.4,1.4,3.8,1.4,5.2,0L75.3,93L68.4,86.1z
		"/>
	<rect x="42.1" y="81.7" transform="matrix(0.7071 -0.7071 0.7071 0.7071 -46.1325 58.055)" class="st0" width="9.8" height="6.1"/>
	<rect x="44" y="36.4" transform="matrix(0.7071 -0.7071 0.7071 0.7071 -15.4037 45.3375)" class="st0" width="6.1" height="9.8"/>
	<path class="st0" d="M83.6,60.4L64.4,41.3c-1.4-1.4-3.8-1.4-5.2,0L40.1,60.4c-1.4,1.4-1.4,3.8,0,5.2l19.1,19.1
		c1.4,1.4,3.8,1.4,5.2,0l19.1-19.1C85,64.2,85,61.8,83.6,60.4z M71.7,72.2c-0.7,0.3-1.8,0.5-3.4,0.8c-1.6,0.3-3.4,0.4-5.8,0.4
		c-1.9,0-3.8-0.3-5.4-0.8c-1.6-0.5-2.9-1.2-4.1-2.2c-1.1-0.9-2-2.1-2.6-3.4c-0.6-1.3-0.9-2.9-0.9-4.7c0-1.8,0.3-3.4,1-4.7
		c0.7-1.3,1.6-2.5,2.8-3.4c1.2-0.9,2.6-1.7,4.2-2.2c1.6-0.5,3.3-0.8,5.1-0.8c1.3,0,2.3,0.1,3.4,0.2c1,0.2,1.8,0.3,2.6,0.4
		c0.8,0.2,1.3,0.3,1.8,0.5c0.5,0.2,0.8,0.3,1,0.4l-1.7,3.9C68.9,56.3,68,56,67,55.7c-1-0.3-2.2-0.4-3.4-0.4c-2.8,0-4.7,0.6-6,1.8
		c-1.3,1.3-1.8,2.9-1.8,5c0,1,0.2,2,0.4,2.9c0.3,0.8,0.8,1.6,1.3,2.2c0.6,0.6,1.3,1.1,2.3,1.4s1.9,0.5,3.2,0.5c0.7,0,1.2,0,1.7,0
		s0.8-0.1,1.3-0.1v-7.4h5.9C71.7,61.7,71.7,72.2,71.7,72.2z"/>
</g>
</svg>
