<?xml version="1.0" encoding="utf-8"?>
<!-- Generator: Adobe Illustrator 23.0.4, SVG Export Plug-In . SVG Version: 6.00 Build 0)  -->
<svg version="1.1" id="Ebene_1" xmlns="http://www.w3.org/2000/svg" xmlns:xlink="http://www.w3.org/1999/xlink" x="0px" y="0px"
	 viewBox="0 0 440.8 145.7" style="enable-background:new 0 0 440.8 145.7;" xml:space="preserve">
<style type="text/css">
	.st0{fill:#795548;}
</style>
<g>
	<path class="st0" d="M216.3,76.5h8.3v27.6c-0.7,0.2-1.6,0.5-3,0.7c-1.2,0.2-2.7,0.6-4.5,0.9c-1.7,0.2-3.5,0.5-5.4,0.7
		c-2,0.2-4,0.2-6.1,0.2c-4.2,0-7.9-0.7-11.4-2.1c-3.5-1.4-6.3-3.3-8.8-5.9c-2.5-2.6-4.3-5.8-5.7-9.7c-1.4-3.8-2-8.2-2-13.1
		c0-5,0.7-9.3,2.2-13.1s3.6-7.1,6.1-9.7c2.6-2.6,5.6-4.6,9-5.9c3.5-1.4,7.2-2.1,11-2.1c2.7,0,5.1,0.1,7.2,0.5
		c2.1,0.4,3.8,0.7,5.3,1.2s2.7,0.9,3.6,1.4c1,0.5,1.6,0.7,2,1l-2.6,6.9c-1.6-1.1-3.8-2-6.6-2.7c-2.7-0.7-5.6-1.1-8.4-1.1
		c-3,0-5.8,0.5-8.2,1.6c-2.5,1.1-4.6,2.6-6.3,4.7c-1.7,2.1-3.1,4.6-4.1,7.4c-1,3-1.5,6.2-1.5,9.9c0,3.5,0.4,6.7,1.2,9.7
		c0.9,2.8,2.1,5.4,3.7,7.4c1.7,2.1,3.7,3.7,6.2,4.8c2.5,1.1,5.4,1.7,8.8,1.7c2.4,0,4.5-0.1,6.1-0.4c1.7-0.2,2.8-0.5,3.6-0.7V76.5
		H216.3z"/>
	<path class="st0" d="M251.3,60c3.2,0,5.8,0.4,8,1.2c2.2,0.9,4,2,5.3,3.5c1.4,1.5,2.2,3.3,2.8,5.3c0.6,2.1,0.9,4.3,0.9,6.8v27.7
		c-0.7,0.1-1.6,0.2-2.8,0.5c-1.2,0.2-2.6,0.4-4.1,0.5c-1.5,0.1-3.2,0.4-5,0.5s-3.6,0.2-5.3,0.2c-2.5,0-4.8-0.2-6.9-0.7
		c-2.1-0.5-4-1.4-5.4-2.5c-1.5-1.1-2.7-2.6-3.6-4.3c-0.9-1.9-1.2-4-1.2-6.6c0-2.5,0.5-4.6,1.5-6.3c1-1.7,2.4-3.2,4.1-4.2
		c1.7-1.1,3.7-1.9,5.9-2.4c2.2-0.5,4.7-0.7,7.2-0.7c0.7,0,1.6,0,2.5,0.1c0.9,0.1,1.6,0.2,2.5,0.4c0.7,0.1,1.5,0.2,2,0.4
		c0.6,0.1,1,0.2,1.2,0.2v-2.2c0-1.4-0.1-2.6-0.4-3.8s-0.7-2.5-1.5-3.5s-1.7-1.7-3-2.4c-1.2-0.6-3-0.9-5-0.9c-2.6,0-5,0.1-6.8,0.5
		c-2,0.4-3.5,0.7-4.3,1.1l-1-6.6c1-0.5,2.7-0.9,5.1-1.4C246,60.2,248.5,60,251.3,60z M252,99.7c1.9,0,3.6,0,5-0.1
		c1.5-0.1,2.6-0.2,3.6-0.5V86c-0.6-0.2-1.5-0.5-2.7-0.7c-1.2-0.2-2.8-0.2-4.7-0.2c-1.2,0-2.5,0.1-3.8,0.2c-1.4,0.1-2.6,0.5-3.7,1.1
		c-1.1,0.5-2,1.2-2.7,2.2c-0.7,1-1.1,2.2-1.1,3.7c0,2.8,0.9,4.8,2.7,5.9C246.4,99.2,248.9,99.7,252,99.7z"/>
	<path class="st0" d="M294.8,106.3c-5-0.1-8.4-1.1-10.4-3.2c-2.1-2-3.1-5.1-3.1-9.3V40.6l7.9-1.4v53.4c0,1.4,0.1,2.4,0.4,3.2
		c0.2,0.9,0.6,1.5,1.1,2.1c0.5,0.5,1.2,0.9,2.1,1.1c0.9,0.2,1.9,0.5,3.1,0.6L294.8,106.3z"/>
	<path class="st0" d="M308.8,53.1c-1.4,0-2.6-0.5-3.6-1.4c-1-1-1.5-2.2-1.5-3.8s0.5-2.8,1.5-3.8s2.2-1.4,3.6-1.4
		c1.4,0,2.6,0.5,3.6,1.4c1,1,1.5,2.2,1.5,3.8s-0.5,2.8-1.5,3.8C311.4,52.7,310.2,53.1,308.8,53.1z M312.8,105.6h-7.9V61.1h7.9V105.6
		z"/>
	<path class="st0" d="M339.7,106.3c-5-0.1-8.4-1.1-10.4-3.2c-2.1-2-3.1-5.1-3.1-9.3V40.6l7.9-1.4v53.4c0,1.4,0.1,2.4,0.4,3.2
		c0.2,0.9,0.6,1.5,1.1,2.1c0.5,0.5,1.2,0.9,2.1,1.1c0.9,0.2,1.9,0.5,3.1,0.6L339.7,106.3z"/>
	<path class="st0" d="M347.2,83.4c0-4,0.6-7.3,1.7-10.3c1.1-3,2.6-5.3,4.6-7.3c1.9-2,4.1-3.3,6.4-4.3c2.5-1,5-1.5,7.6-1.5
		c5.9,0,10.5,1.9,13.7,5.6c3.2,3.7,4.8,9.4,4.8,17c0,0.4,0,0.7,0,1.4c0,0.5,0,1-0.1,1.5h-30.3c0.4,4.6,1.7,8,4,10.5
		c2.4,2.4,5.9,3.6,10.9,3.6c2.7,0,5.1-0.2,7.1-0.7c1.9-0.5,3.3-1,4.3-1.4l1.1,6.7c-1,0.5-2.6,1.1-5.1,1.6c-2.5,0.6-5.2,0.9-8.2,0.9
		c-3.8,0-7.2-0.6-10-1.7c-2.8-1.1-5.1-2.7-6.9-4.8s-3.2-4.5-4.1-7.3C347.7,89.8,347.2,86.7,347.2,83.4z M377.6,79.1
		c0-3.6-0.9-6.6-2.7-8.8c-1.9-2.4-4.3-3.5-7.7-3.5c-1.9,0-3.5,0.4-4.8,1.1c-1.4,0.7-2.6,1.6-3.6,2.7c-1,1.1-1.7,2.5-2.2,4
		c-0.5,1.5-0.9,3-1.1,4.6h22.2V79.1z"/>
	<path class="st0" d="M410.7,106.3c-5-0.1-8.4-1.1-10.4-3.2c-2.1-2-3.1-5.1-3.1-9.3V40.6l7.9-1.4v53.4c0,1.4,0.1,2.4,0.4,3.2
		c0.2,0.9,0.6,1.5,1.1,2.1c0.5,0.5,1.2,0.9,2.1,1.1c0.9,0.2,1.9,0.5,3.1,0.6L410.7,106.3z"/>
</g>
<g>
	<rect x="51.8" y="90.4" transform="matrix(0.7071 -0.7071 0.7071 0.7071 -49.7971 69.5314)" class="st0" width="14.5" height="9"/>
	<path class="st0" d="M81.5,39l5.8-5.8c2.1-2.1,5.6-2.1,7.7,0l5.8,5.8l10.3-10.3L95,12.6c-2.1-2.1-5.6-2.1-7.7,0L71.2,28.7L81.5,39z
		"/>
	
		<rect x="118.7" y="87.7" transform="matrix(0.7071 -0.7071 0.7071 0.7071 -31.0235 114.893)" class="st0" width="9" height="14.5"/>
	
		<rect x="108.4" y="97.8" transform="matrix(0.7071 -0.7071 0.7071 0.7071 -41.1762 110.5938)" class="st0" width="9" height="14.5"/>
	<rect x="105.7" y="36.3" transform="matrix(0.7071 -0.7071 0.7071 0.7071 4.1854 91.8203)" class="st0" width="14.5" height="9"/>
	
		<rect x="115.9" y="46.7" transform="matrix(0.7071 -0.7071 0.7071 0.7071 -0.1501 102.0605)" class="st0" width="14.5" height="9"/>
	<rect x="54.5" y="43.9" transform="matrix(0.7071 -0.7071 0.7071 0.7071 -18.9237 56.6989)" class="st0" width="9" height="14.5"/>
	<path class="st0" d="M57.1,82.7l-5.8-5.8c-2.1-2.1-2.1-5.6,0-7.7l5.8-5.8L46.8,53.1L30.7,69.2c-2.1,2.1-2.1,5.6,0,7.7l16.1,16.1
		L57.1,82.7z"/>
	<path class="st0" d="M151.4,69.2l-16.1-16.1L125,63.3l5.8,5.8c2.1,2.1,2.1,5.6,0,7.7l-5.8,5.8l10.3,10.3l16.1-16.1
		C153.5,74.7,153.5,71.3,151.4,69.2z"/>
	<path class="st0" d="M100.8,107l-5.8,5.8c-2.1,2.1-5.6,2.1-7.7,0l-5.8-5.8l-10.3,10.3l16.1,16.1c2.1,2.1,5.6,2.1,7.7,0l16.1-16.1
		L100.8,107z"/>
	<rect x="62" y="100.5" transform="matrix(0.7071 -0.7071 0.7071 0.7071 -54.0088 79.7203)" class="st0" width="14.5" height="9"/>
	<rect x="64.7" y="33.7" transform="matrix(0.7071 -0.7071 0.7071 0.7071 -8.6472 60.9468)" class="st0" width="9" height="14.5"/>
	<path class="st0" d="M123.2,69.2L95,40.9c-2.1-2.1-5.6-2.1-7.7,0L59.1,69.2c-2.1,2.1-2.1,5.6,0,7.7l28.2,28.2
		c2.1,2.1,5.6,2.1,7.7,0l28.2-28.2C125.3,74.7,125.3,71.3,123.2,69.2z M105.7,86.6c-1,0.4-2.7,0.7-5,1.1c-2.4,0.4-5.1,0.6-8.5,0.6
		c-2.8,0-5.6-0.4-7.9-1.1C82,86.5,80,85.5,78.2,84c-1.6-1.4-3-3.1-3.8-5.1C73.5,77,73,74.6,73,72s0.5-5,1.5-6.9c1-2,2.4-3.7,4.1-5.1
		c1.7-1.4,3.8-2.5,6.2-3.2c2.4-0.7,4.8-1.1,7.6-1.1c1.9,0,3.5,0.1,5,0.2c1.5,0.2,2.7,0.4,3.8,0.6c1.1,0.2,2,0.5,2.6,0.7
		c0.7,0.2,1.2,0.5,1.5,0.6l-2.5,5.7c-1.2-0.5-2.6-1-4.1-1.4c-1.5-0.4-3.2-0.6-5.1-0.6c-4.1,0-6.9,0.9-8.8,2.7
		c-1.9,1.9-2.7,4.3-2.7,7.4c0,1.5,0.2,3,0.6,4.2c0.5,1.2,1.1,2.4,2,3.2c0.9,0.9,2,1.6,3.3,2.1c1.4,0.5,2.8,0.7,4.7,0.7
		c1,0,1.7,0,2.5,0s1.2-0.1,1.9-0.1V71h8.7C105.7,71,105.7,86.6,105.7,86.6z"/>
</g>
</svg>
