<?xml version="1.0" encoding="UTF-8" standalone="no"?>
<!-- Generator: Adobe Illustrator 23.0.4, SVG Export Plug-In . SVG Version: 6.00 Build 0)  -->

<svg
   xmlns:dc="http://purl.org/dc/elements/1.1/"
   xmlns:cc="http://creativecommons.org/ns#"
   xmlns:rdf="http://www.w3.org/1999/02/22-rdf-syntax-ns#"
   xmlns:svg="http://www.w3.org/2000/svg"
   xmlns="http://www.w3.org/2000/svg"
   xmlns:sodipodi="http://sodipodi.sourceforge.net/DTD/sodipodi-0.dtd"
   xmlns:inkscape="http://www.inkscape.org/namespaces/inkscape"
   version="1.1"
   id="Ebene_1"
   x="0px"
   y="0px"
   viewBox="0 0 48 48"
   style="enable-background:new 0 0 48 48;"
   xml:space="preserve"
   sodipodi:docname="rewards_white.svg"
   inkscape:version="0.92.4 5da689c313, 2019-01-14"><metadata
   id="metadata14"><rdf:RDF><cc:Work
       rdf:about=""><dc:format>image/svg+xml</dc:format><dc:type
         rdf:resource="http://purl.org/dc/dcmitype/StillImage" /><dc:title></dc:title></cc:Work></rdf:RDF></metadata><defs
   id="defs12" /><sodipodi:namedview
   pagecolor="#ffffff"
   bordercolor="#666666"
   borderopacity="1"
   objecttolerance="10"
   gridtolerance="10"
   guidetolerance="10"
   inkscape:pageopacity="0"
   inkscape:pageshadow="2"
   inkscape:window-width="1313"
   inkscape:window-height="805"
   id="namedview10"
   showgrid="false"
   inkscape:zoom="6.9532167"
   inkscape:cx="4.0459577"
   inkscape:cy="16.071065"
   inkscape:window-x="268"
   inkscape:window-y="76"
   inkscape:window-maximized="0"
   inkscape:current-layer="Ebene_1" />
<style
   type="text/css"
   id="style2">
	.st0{fill:none;stroke:#795548;stroke-width:2;stroke-linecap:round;stroke-miterlimit:10;}
	.st1{fill:none;stroke:#795548;stroke-width:2;stroke-linecap:round;stroke-linejoin:round;stroke-miterlimit:10;}
</style>

<g
   transform="matrix(1.2015019,0,0,1.1985019,-4.8961202,-4.7640461)"
   id="g6475"
   style="fill:#d5c6b6;fill-opacity:1;stroke:none"><rect
     x="11.4"
     y="29.6"
     transform="matrix(0.7071,-0.7071,0.7071,0.7071,-17.9164,18.8195)"
     class="st0"
     width="4.6999998"
     height="2.9000001"
     id="rect6449"
     style="fill:#d5c6b6;fill-opacity:1;stroke:none;stroke-width:2;stroke-linecap:round;stroke-miterlimit:10" /><path
     inkscape:connector-curvature="0"
     class="st0"
     d="m 21,13 1.9,-1.9 c 0.7,-0.7 1.8,-0.7 2.5,0 L 27.3,13 30.6,9.7 25.4,4.5 c -0.7,-0.7 -1.8,-0.7 -2.5,0 l -5.2,5.2 z"
     id="path6451"
     style="fill:#d5c6b6;fill-opacity:1;stroke:none;stroke-width:2;stroke-linecap:round;stroke-miterlimit:10" /><rect
     x="32.900002"
     y="28.700001"
     transform="matrix(0.7071,-0.7071,0.7071,0.7071,-11.8776,33.4107)"
     class="st0"
     width="2.9000001"
     height="4.6999998"
     id="rect6453"
     style="fill:#d5c6b6;fill-opacity:1;stroke:none;stroke-width:2;stroke-linecap:round;stroke-miterlimit:10" /><rect
     x="29.6"
     y="32"
     transform="matrix(0.7071,-0.7071,0.7071,0.7071,-15.1434,32.0278)"
     class="st0"
     width="2.9000001"
     height="4.6999998"
     id="rect6455"
     style="fill:#d5c6b6;fill-opacity:1;stroke:none;stroke-width:2;stroke-linecap:round;stroke-miterlimit:10" /><rect
     x="28.799999"
     y="12.2"
     transform="matrix(0.7071,-0.7071,0.7071,0.7071,-0.5522,25.989)"
     class="st0"
     width="4.6999998"
     height="2.9000001"
     id="rect6457"
     style="fill:#d5c6b6;fill-opacity:1;stroke:none;stroke-width:2;stroke-linecap:round;stroke-miterlimit:10" /><rect
     x="32"
     y="15.5"
     transform="matrix(0.7071,-0.7071,0.7071,0.7071,-1.9468,29.2829)"
     class="st0"
     width="4.6999998"
     height="2.9000001"
     id="rect6459"
     style="fill:#d5c6b6;fill-opacity:1;stroke:none;stroke-width:2;stroke-linecap:round;stroke-miterlimit:10" /><rect
     x="12.3"
     y="14.7"
     transform="matrix(0.7071,-0.7071,0.7071,0.7071,-7.9856,14.6917)"
     class="st0"
     width="2.9000001"
     height="4.6999998"
     id="rect6461"
     style="fill:#d5c6b6;fill-opacity:1;stroke:none;stroke-width:2;stroke-linecap:round;stroke-miterlimit:10" /><path
     inkscape:connector-curvature="0"
     class="st0"
     d="m 13.1,27.1 -1.9,-1.9 c -0.7,-0.7 -0.7,-1.8 0,-2.5 l 1.9,-1.9 -3.3,-3.3 -5.2,5.2 c -0.7,0.7 -0.7,1.8 0,2.5 l 5.2,5.2 z"
     id="path6463"
     style="fill:#d5c6b6;fill-opacity:1;stroke:none;stroke-width:2;stroke-linecap:round;stroke-miterlimit:10" /><path
     inkscape:connector-curvature="0"
     class="st0"
     d="m 43.5,22.8 -5.2,-5.2 -3.3,3.3 1.9,1.9 c 0.7,0.7 0.7,1.8 0,2.5 l -1.9,1.8 3.3,3.3 5.2,-5.2 c 0.7,-0.6 0.7,-1.8 0,-2.4 z"
     id="path6465"
     style="fill:#d5c6b6;fill-opacity:1;stroke:none;stroke-width:2;stroke-linecap:round;stroke-miterlimit:10" /><path
     inkscape:connector-curvature="0"
     class="st0"
     d="m 27.2,35 -1.9,1.9 c -0.7,0.7 -1.8,0.7 -2.5,0 L 21,35 l -3.3,3.3 5.2,5.2 c 0.7,0.7 1.8,0.7 2.5,0 l 5.2,-5.2 z"
     id="path6467"
     style="fill:#d5c6b6;fill-opacity:1;stroke:none;stroke-width:2;stroke-linecap:round;stroke-miterlimit:10" /><rect
     x="14.7"
     y="32.900002"
     transform="matrix(0.7071,-0.7071,0.7071,0.7071,-19.2712,22.0969)"
     class="st0"
     width="4.6999998"
     height="2.9000001"
     id="rect6469"
     style="fill:#d5c6b6;fill-opacity:1;stroke:none;stroke-width:2;stroke-linecap:round;stroke-miterlimit:10" /><rect
     x="15.6"
     y="11.3"
     transform="matrix(0.7071,-0.7071,0.7071,0.7071,-4.68,16.0581)"
     class="st0"
     width="2.9000001"
     height="4.6999998"
     id="rect6471"
     style="fill:#d5c6b6;fill-opacity:1;stroke:none;stroke-width:2;stroke-linecap:round;stroke-miterlimit:10" /><path
     inkscape:connector-curvature="0"
     class="st0"
     d="M 34.4,22.8 25.3,13.7 C 24.6,13 23.5,13 22.8,13.7 l -9.1,9.1 c -0.7,0.7 -0.7,1.8 0,2.5 l 9.1,9.1 c 0.7,0.7 1.8,0.7 2.5,0 l 9.1,-9.1 c 0.7,-0.7 0.7,-1.9 0,-2.5 z m -5.6,5.6 c -0.3,0.1 -0.9,0.2 -1.6,0.4 -0.8,0.1 -1.6,0.2 -2.7,0.2 -0.9,0 -1.8,-0.1 -2.5,-0.4 -0.7,-0.3 -1.4,-0.6 -2,-1 -0.5,-0.4 -1,-1 -1.2,-1.6 -0.3,-0.6 -0.4,-1.4 -0.4,-2.2 0,-0.8 0.2,-1.6 0.5,-2.2 0.3,-0.6 0.8,-1.2 1.3,-1.6 0.6,-0.4 1.2,-0.8 2,-1 0.8,-0.2 1.6,-0.4 2.4,-0.4 0.6,0 1.1,0 1.6,0.1 0.5,0.1 0.9,0.1 1.2,0.2 0.4,0.1 0.6,0.2 0.8,0.2 0.2,0.1 0.4,0.2 0.5,0.2 L 27.8,21 c -0.4,-0.2 -0.8,-0.3 -1.3,-0.4 -0.5,-0.1 -1,-0.2 -1.6,-0.2 -1.3,0 -2.2,0.3 -2.8,0.9 -0.6,0.6 -0.9,1.4 -0.9,2.4 0,0.5 0.1,1 0.2,1.4 0.2,0.4 0.4,0.8 0.6,1 0.3,0.3 0.6,0.5 1.1,0.7 0.4,0.2 0.9,0.2 1.5,0.2 0.3,0 0.6,0 0.8,0 0.2,0 0.4,0 0.6,0 v -3.5 h 2.8 c 0,-0.1 0,4.9 0,4.9 z"
     id="path6473"
     style="fill:#d5c6b6;fill-opacity:1;stroke:none;stroke-width:2;stroke-linecap:round;stroke-miterlimit:10" /></g></svg>