<?xml version="1.0" encoding="utf-8"?>
<!-- Generator: Adobe Illustrator 23.0.4, SVG Export Plug-In . SVG Version: 6.00 Build 0)  -->
<svg version="1.1" id="Ebene_1" xmlns="http://www.w3.org/2000/svg" xmlns:xlink="http://www.w3.org/1999/xlink" x="0px" y="0px"
	 viewBox="0 0 417.3 138.2" style="enable-background:new 0 0 417.3 138.2;" xml:space="preserve">
<style type="text/css">
	.st0{fill:#FFFFFF;}
</style>
<g>
	<path class="st0" d="M205.4,72.4h8.2v27.2c-0.7,0.2-1.6,0.5-2.9,0.7c-1.2,0.2-2.7,0.6-4.4,0.9c-1.7,0.2-3.4,0.5-5.4,0.7
		c-1.9,0.2-3.9,0.2-6,0.2c-4.1,0-7.8-0.7-11.2-2.1c-3.4-1.3-6.2-3.3-8.6-5.8c-2.4-2.6-4.3-5.7-5.6-9.5c-1.3-3.8-1.9-8-1.9-12.9
		c0-4.9,0.7-9.1,2.2-12.9c1.5-3.8,3.5-6.9,6-9.5c2.6-2.6,5.5-4.5,8.9-5.8s7.1-2.1,10.8-2.1c2.7,0,5,0.1,7.1,0.5
		c2.1,0.4,3.8,0.7,5.2,1.2s2.7,0.9,3.5,1.3c1,0.5,1.6,0.7,1.9,1l-2.6,6.8c-1.6-1.1-3.8-1.9-6.5-2.7c-2.7-0.7-5.5-1.1-8.3-1.1
		c-2.9,0-5.7,0.5-8,1.6c-2.4,1.1-4.5,2.6-6.2,4.6c-1.7,2.1-3,4.5-4,7.3c-1,2.9-1.5,6.1-1.5,9.7c0,3.4,0.4,6.6,1.2,9.5
		c0.9,2.8,2.1,5.4,3.7,7.3c1.7,2.1,3.7,3.7,6.1,4.8c2.4,1.1,5.4,1.7,8.6,1.7c2.3,0,4.4-0.1,6-0.4c1.7-0.2,2.8-0.5,3.5-0.7V72.4
		H205.4z"/>
	<path class="st0" d="M239.8,56.2c3.2,0,5.7,0.4,7.9,1.2c2.2,0.9,3.9,1.9,5.2,3.4s2.2,3.3,2.8,5.2c0.6,2.1,0.9,4.3,0.9,6.7v27.3
		c-0.7,0.1-1.6,0.2-2.8,0.5c-1.2,0.2-2.6,0.4-4,0.5c-1.5,0.1-3.2,0.4-4.9,0.5c-1.7,0.1-3.5,0.2-5.2,0.2c-2.4,0-4.8-0.2-6.8-0.7
		c-2.1-0.5-3.9-1.3-5.4-2.4s-2.7-2.6-3.5-4.3c-0.9-1.8-1.2-3.9-1.2-6.5c0-2.4,0.5-4.5,1.5-6.2c1-1.7,2.3-3.2,4-4.1
		c1.7-1.1,3.7-1.8,5.8-2.3c2.2-0.5,4.6-0.7,7.1-0.7c0.7,0,1.6,0,2.4,0.1s1.6,0.2,2.4,0.4c0.7,0.1,1.5,0.2,1.9,0.4
		c0.6,0.1,1,0.2,1.2,0.2v-2.2c0-1.3-0.1-2.6-0.4-3.8s-0.7-2.4-1.5-3.4c-0.7-1-1.7-1.7-2.9-2.3s-2.9-0.9-4.9-0.9
		c-2.6,0-4.9,0.1-6.7,0.5c-1.9,0.4-3.4,0.7-4.3,1.1l-1-6.5c1-0.5,2.7-0.9,5-1.3C234.6,56.5,237,56.2,239.8,56.2z M240.4,95.3
		c1.8,0,3.5,0,4.9-0.1c1.5-0.1,2.6-0.2,3.5-0.5V81.8c-0.6-0.2-1.5-0.5-2.7-0.7s-2.8-0.2-4.6-0.2c-1.2,0-2.4,0.1-3.8,0.2
		c-1.3,0.1-2.6,0.5-3.7,1.1c-1.1,0.5-1.9,1.2-2.7,2.2c-0.7,1-1.1,2.2-1.1,3.7c0,2.8,0.9,4.8,2.7,5.8C235,94.8,237.4,95.3,240.4,95.3
		z"/>
	<path class="st0" d="M282.6,101.8c-4.9-0.1-8.3-1.1-10.2-3.2c-2.1-1.9-3-5-3-9.1V37.1l7.8-1.3v52.5c0,1.3,0.1,2.3,0.4,3.2
		c0.2,0.9,0.6,1.5,1.1,2.1c0.5,0.5,1.2,0.9,2.1,1.1c0.9,0.2,1.8,0.5,3,0.6L282.6,101.8z"/>
	<path class="st0" d="M296.4,49.4c-1.3,0-2.6-0.5-3.5-1.3c-1-1-1.5-2.2-1.5-3.8s0.5-2.8,1.5-3.8s2.2-1.3,3.5-1.3
		c1.3,0,2.6,0.5,3.5,1.3c1,1,1.5,2.2,1.5,3.8s-0.5,2.8-1.5,3.8C298.9,49,297.7,49.4,296.4,49.4z M300.3,101h-7.8V57.3h7.8V101z"/>
	<path class="st0" d="M326.8,101.8c-4.9-0.1-8.3-1.1-10.2-3.2c-2.1-1.9-3-5-3-9.1V37.1l7.8-1.3v52.5c0,1.3,0.1,2.3,0.4,3.2
		c0.2,0.9,0.6,1.5,1.1,2.1c0.5,0.5,1.2,0.9,2.1,1.1c0.9,0.2,1.8,0.5,3,0.6L326.8,101.8z"/>
	<path class="st0" d="M334.1,79.2c0-3.9,0.6-7.2,1.7-10.1c1.1-2.9,2.6-5.2,4.5-7.2c1.8-1.9,4-3.3,6.3-4.3c2.4-1,4.9-1.5,7.4-1.5
		c5.8,0,10.4,1.8,13.5,5.5c3.2,3.7,4.8,9.3,4.8,16.7c0,0.4,0,0.7,0,1.3c0,0.5,0,1-0.1,1.5h-29.8c0.4,4.5,1.7,7.9,3.9,10.4
		c2.3,2.3,5.8,3.5,10.7,3.5c2.7,0,5-0.2,6.9-0.7c1.8-0.5,3.3-1,4.3-1.3l1.1,6.6c-1,0.5-2.6,1.1-5,1.6c-2.4,0.6-5.1,0.9-8,0.9
		c-3.8,0-7.1-0.6-9.9-1.7c-2.8-1.1-5-2.7-6.8-4.8c-1.8-2.1-3.2-4.4-4-7.2C334.6,85.6,334.1,82.5,334.1,79.2z M364.1,75
		c0-3.5-0.9-6.5-2.7-8.6c-1.8-2.3-4.3-3.4-7.6-3.4c-1.8,0-3.4,0.4-4.8,1.1c-1.3,0.7-2.6,1.6-3.5,2.7c-1,1.1-1.7,2.4-2.2,3.9
		c-0.5,1.5-0.9,2.9-1.1,4.5h21.8V75z"/>
	<path class="st0" d="M396.6,101.8c-4.9-0.1-8.3-1.1-10.2-3.2c-2.1-1.9-3-5-3-9.1V37.1l7.8-1.3v52.5c0,1.3,0.1,2.3,0.4,3.2
		c0.2,0.9,0.6,1.5,1.1,2.1c0.5,0.5,1.2,0.9,2.1,1.1c0.9,0.2,1.8,0.5,3,0.6L396.6,101.8z"/>
</g>
<g>
	
		<rect x="43.5" y="86.1" transform="matrix(0.7071 -0.7071 0.7071 0.7071 -49.1784 62.3194)" class="st0" width="14.3" height="8.9"/>
	<path class="st0" d="M72.7,35.5l5.7-5.7c2.1-2.1,5.5-2.1,7.6,0l5.7,5.7l10.1-10.1L86,9.6c-2.1-2.1-5.5-2.1-7.6,0L62.6,25.4
		L72.7,35.5z"/>
	
		<rect x="109.3" y="83.4" transform="matrix(0.7071 -0.7071 0.7071 0.7071 -30.7076 106.9493)" class="st0" width="8.9" height="14.3"/>
	
		<rect x="99.2" y="93.4" transform="matrix(0.7071 -0.7071 0.7071 0.7071 -40.6965 102.7195)" class="st0" width="8.9" height="14.3"/>
	<rect x="96.5" y="32.9" transform="matrix(0.7071 -0.7071 0.7071 0.7071 3.9334 84.2488)" class="st0" width="14.3" height="8.9"/>
	
		<rect x="106.6" y="43.1" transform="matrix(0.7071 -0.7071 0.7071 0.7071 -0.3322 94.3238)" class="st0" width="14.3" height="8.9"/>
	
		<rect x="46.1" y="40.4" transform="matrix(0.7071 -0.7071 0.7071 0.7071 -18.803 49.6939)" class="st0" width="8.9" height="14.3"/>
	<path class="st0" d="M48.7,78.5L43,72.8c-2.1-2.1-2.1-5.5,0-7.6l5.7-5.7L38.6,49.4L22.8,65.2c-2.1,2.1-2.1,5.5,0,7.6l15.8,15.8
		L48.7,78.5z"/>
	<path class="st0" d="M141.5,65.2l-15.8-15.8l-10.1,10.1l5.7,5.7c2.1,2.1,2.1,5.5,0,7.6l-5.7,5.7l10.1,10.1l15.8-15.8
		C143.6,70.7,143.6,67.3,141.5,65.2z"/>
	<path class="st0" d="M91.7,102.5l-5.7,5.7c-2.1,2.1-5.5,2.1-7.6,0l-5.7-5.7l-10.1,10.1l15.8,15.8c2.1,2.1,5.5,2.1,7.6,0l15.8-15.8
		L91.7,102.5z"/>
	
		<rect x="53.5" y="96.1" transform="matrix(0.7071 -0.7071 0.7071 0.7071 -53.3222 72.3439)" class="st0" width="14.3" height="8.9"/>
	
		<rect x="56.2" y="30.3" transform="matrix(0.7071 -0.7071 0.7071 0.7071 -8.6922 53.8733)" class="st0" width="8.9" height="14.3"/>
	<path class="st0" d="M113.8,65.2L86,37.4c-2.1-2.1-5.5-2.1-7.6,0L50.7,65.2c-2.1,2.1-2.1,5.5,0,7.6l27.8,27.8
		c2.1,2.1,5.5,2.1,7.6,0l27.8-27.8C115.8,70.7,115.8,67.3,113.8,65.2z M96.6,82.4c-1,0.4-2.7,0.7-4.9,1.1c-2.3,0.4-5,0.6-8.4,0.6
		c-2.8,0-5.5-0.4-7.8-1.1c-2.3-0.7-4.3-1.7-6-3.2c-1.6-1.3-2.9-3-3.8-5c-0.9-1.9-1.3-4.3-1.3-6.8s0.5-4.9,1.5-6.8s2.3-3.7,4-5
		c1.7-1.3,3.8-2.4,6.1-3.2c2.3-0.7,4.8-1.1,7.4-1.1c1.8,0,3.4,0.1,4.9,0.2c1.5,0.2,2.7,0.4,3.8,0.6c1.1,0.2,1.9,0.5,2.6,0.7
		c0.7,0.2,1.2,0.5,1.5,0.6l-2.4,5.6c-1.2-0.5-2.6-1-4-1.3s-3.2-0.6-5-0.6c-4,0-6.8,0.9-8.6,2.7c-1.8,1.8-2.7,4.3-2.7,7.3
		c0,1.5,0.2,2.9,0.6,4.1c0.5,1.2,1.1,2.3,1.9,3.2s1.9,1.6,3.3,2.1s2.8,0.7,4.6,0.7c1,0,1.7,0,2.4,0s1.2-0.1,1.8-0.1V67.1h8.5
		C96.6,67.1,96.6,82.4,96.6,82.4z"/>
</g>
</svg>
